PathFileType	4	(X/Y/Z)	45_2_87_p0_0-312.trc
DataRate	CameraRate	NumFrames	NumMarkers	Units	OrigDataRate	OrigDataStartFrame	OrigNumFrames
52.0	52.0	5	27	m	52.0	39	313
Frame#	Time	RHip			RKnee			RAnkle			RBigToe			RSmallToe			RHeel			LHip			LKnee			LAnkle			LBigToe			LSmallToe			LHeel			Neck			Head			Nose			RShoulder			RElbow			RWrist			RThumb			RIndex			RPinky			LShoulder			LElbow			LWrist			LThumb			LIndex			LPinky			
		X1	Y1	Z1	X2	Y2	Z2	X3	Y3	Z3	X4	Y4	Z4	X5	Y5	Z5	X6	Y6	Z6	X7	Y7	Z7	X8	Y8	Z8	X9	Y9	Z9	X10	Y10	Z10	X11	Y11	Z11	X12	Y12	Z12	X13	Y13	Z13	X14	Y14	Z14	X15	Y15	Z15	X16	Y16	Z16	X17	Y17	Z17	X18	Y18	Z18	X19	Y19	Z19	X20	Y20	Z20	X21	Y21	Z21	X22	Y22	Z22	X23	Y23	Z23	X24	Y24	Z24	X25	Y25	Z25	X26	Y26	Z26	X27	Y27	Z27	
39	0.75	0.572245620116612	0.4741121960815631	0.7899261812490386	0.6059785861110466	0.6907031430842606	1.24071933630204	0.6473658410090306	0.8519731365406532	1.667721971822127	0.6067512854255335	0.7005611786562081	1.7562094926686727	0.6750359313346229	0.6718856268802892	1.73426709546871	0.6236415299688131	0.8972135930990386	1.7081164927600914	0.3528448441202128	0.5307327851637396	0.8199300920600395	0.40531181150111784	0.7087788273403245	1.2773346333392483	0.42879554775984774	0.8435511855665052	1.6936474691538816	0.46638013646217924	0.6912854768477212	1.7551914003451345	0.40367759963006083	0.6871288034136055	1.7540150457255477	0.44056971570817244	0.9312825754422333	1.7517862703873721	0.40367982302504335	0.24535319370970612	0.27985147302858376	0.38225791561240147	0.14918426599814316	0.042252941688235256	0.40444861447984015	0.1375033800156451	0.19399977976349958	0.5771296341655505	0.2939924506063947	0.3414741810071607	0.6296629522528776	0.33321190822750596	0.6154070921752836	0.5431391909633633	0.33381866064203064	0.8782173032151928	0.4373534940455885	0.34994491436747116	0.9684007463375581	0.4397440025376139	0.35311480848112226	0.9803011449562522	0.4924838757957716	0.4344897378346789	0.9961750451625669	0.2504214875928012	0.32001008586778074	0.3746720670323444	0.2649359810116744	0.36318229922562123	0.6500655938584267	0.3982380612656945	0.3841738250635777	0.8822815152895929	0.4732857656698844	0.352688492852135	0.9609303807888441	0.4776115286104917	0.347886086779668	0.9757781270744069	0.4445096690687284	0.38032512244222705	0.9798850186577974
40	0.7692307692307693	0.5680408912406258	0.47309124930041935	0.7905796759498168	0.6048566786488269	0.6951555189456128	1.2483499102401194	0.6481098208624615	0.8513822182914336	1.6716402321073913	0.6064878666145725	0.6995955613583191	1.7561041582549242	0.6745489915012015	0.6704394550068218	1.734231337055341	0.6245041360927495	0.8971634009669678	1.7123321885264906	0.35229573031189504	0.527998396875711	0.8164566958300388	0.40433871109019653	0.7064167859355035	1.273536049374452	0.4281496258426731	0.845285550090953	1.698237956715993	0.46755115319464247	0.694886065620326	1.759313577428345	0.40366645851978805	0.6868236037576784	1.7539232073104867	0.44048053157997125	0.9308576320716834	1.7517594562633816	0.40369219980158755	0.24519997649535616	0.27981718426417923	0.38231890414447983	0.14905002034393539	0.04228805913841154	0.40404721642060293	0.13585491381494685	0.19153385399173575	0.5771362277302865	0.2939518182827444	0.34143326094139814	0.6296299941711555	0.33321361749661266	0.6155060700772901	0.5430808746957565	0.3330261352820416	0.8781810339597207	0.43993667821031857	0.32326303794949107	0.975003034178609	0.44525637293547576	0.3254836849486618	0.9825109690547531	0.4917234483953342	0.3952942680603318	0.9976687493578011	0.2503641392288614	0.3198058894582501	0.37463271623637895	0.26479968088956124	0.36339763668870967	0.6500482302960812	0.3981893805327455	0.38450628924127017	0.8824599478447862	0.47637914010852256	0.31094675736049876	0.9574513522976325	0.47774964657868346	0.347413441161096	0.9758989776573875	0.4493361885245313	0.36838906448745196	0.9811902176567077
41	0.7884615384615384	0.5714025811996918	0.4556590259419119	0.7874600399024789	0.6052498575189675	0.6938145630669122	1.2448806279313749	0.6480665225603386	0.8514897370685632	1.671689573602598	0.6082266640888789	0.700842541673771	1.7557725915791198	0.6743530527129274	0.6702751175811407	1.7343840421157268	0.6245409837340195	0.897263789876511	1.7127968923415064	0.34921773255231003	0.5106732429182754	0.8143545112965944	0.4042294622375864	0.7060350192946954	1.2732850830961777	0.428819823946786	0.8434793490661706	1.6936280874253884	0.4676067883042132	0.6948943144464068	1.7592251282563767	0.40366985457931387	0.6869921816782909	1.7539249265326753	0.4412220061151741	0.9293399752422409	1.7464433828567663	0.4036831203781535	0.24509557906870305	0.2798177371247526	0.38256262169850835	0.136748409631004	0.04325717188638219	0.408219471260676	0.12425652775226666	0.19446321492272553	0.580358174341697	0.3055575094797141	0.33830122496326726	0.6296572106764243	0.3340647198617279	0.6188298812524299	0.5429186775026609	0.3327643542132424	0.8780967966383318	0.440177403320299	0.32302339603320546	0.9751844092096539	0.44628542671420557	0.32790573738774165	0.9863389409845376	0.48918696001810646	0.4198670847586792	0.9932410323069831	0.25487784615727627	0.30660986909282634	0.37338747862147204	0.26061873660481616	0.3605975404424867	0.6507701608664969	0.39287983012737693	0.3977363239518151	0.8822525219798844	0.46786499810975946	0.3209896677432128	0.9540588241899696	0.4739407448750857	0.33129438193167654	0.9726379019206512	0.44246695078470494	0.3538584001939495	0.9820886181749228
42	0.8076923076923077	0.5707372962675399	0.45521241970757353	0.7835726776264234	0.6054683656203373	0.6930517423078291	1.2444577260580918	0.6480589160910833	0.8513856882320257	1.6716836662446377	0.6123260029078549	0.6842647645877081	1.750917212225323	0.6749523660057342	0.6727334373915665	1.7348776462972142	0.6245364006820315	0.8967502542120452	1.7131471208263362	0.35625809333383923	0.5092154431450754	0.8131095286109006	0.4039813263113226	0.7055495995732175	1.2731732283935286	0.42877936159936786	0.843487266471081	1.6936457819102755	0.46759269160706846	0.6946547527035618	1.7591577344053446	0.4043325185493268	0.6857593570338486	1.7503722757985647	0.4410853854093114	0.9289472030206353	1.7464281719195391	0.4036861658726147	0.24511169497254	0.27984898136017056	0.3781965732642145	0.14732271607007463	0.039949935641416946	0.40408573358213074	0.13564415645131553	0.19146497152836467	0.5803453675045737	0.3057562353466921	0.3382129550391764	0.6296567530387882	0.33433995471802747	0.6188549273997314	0.5377552952796539	0.329306037738964	0.8790792034265821	0.45273393401263384	0.281972010917004	0.9693197778291802	0.4500109195796237	0.31158471754545763	0.9818095026458661	0.48796022783623805	0.3935889636089235	0.9974806200219708	0.24981845233082794	0.318825050552258	0.37114460127260107	0.2605481171932626	0.3607126172604233	0.6507332399541659	0.3919268847203916	0.3972474150951043	0.8786907354413251	0.46939188964842604	0.27878639131314004	0.9440982451633521	0.4735682121596134	0.3152722956867534	0.9724949327997535	0.4459453380327099	0.3567617202414812	0.9822040900911908
43	0.8269230769230769	0.5663339654765464	0.47009680861367964	0.7828399014017099	0.6051302874726338	0.694304381466707	1.2452470677831804	0.6472685461830132	0.8518302785642696	1.6677075679470683	0.6063004549892876	0.698621541843152	1.7472331910845844	0.6748675213207449	0.6713183525973331	1.7340901218678333	0.6236257834631743	0.8975791818305863	1.7078415566085126	0.3507184858740953	0.5255885365793843	0.8122634768747912	0.399259478171997	0.6924562685958493	1.2722149574214896	0.4280760385346455	0.845326018521451	1.698308227550515	0.4675978886913721	0.6949938317784033	1.759378157252276	0.40375554324712565	0.6871117639066819	1.754117837168964	0.44040976005988386	0.9308616207494327	1.7517823029515227	0.40366050344789195	0.2450671681931815	0.27983238780224956	0.38179461464158154	0.14815887504566358	0.03917874488596009	0.4082568469701079	0.12404192539536145	0.19453820167291233	0.5802971497536149	0.3058997381798953	0.3380895607086463	0.629688669097136	0.33321271516262174	0.6153184463709127	0.5371436208524808	0.3275345000482947	0.8715099984497068	0.45548924185138373	0.255878965768782	0.973898068066283	0.45190913487634427	0.28577305334542624	0.9815746248078226	0.4897219612670728	0.3675038065214588	0.9982954689542084	0.2476457353230679	0.3069479880287239	0.3741918180742718	0.260542985321928	0.3598609169045708	0.6471364851322996	0.392613983510565	0.3971981171002531	0.8788377050862773	0.4620602540872277	0.27719003683363097	0.9439059959667295	0.4659819825283141	0.3185002287669119	0.974377447928218	0.44157029065160014	0.3706533719688791	0.9785762373646095
